<?xml version="1.0" encoding="UTF-8" standalone="no"?>
<svg
   viewBox="-10 -12 120 126"
   version="1.1"
   id="svg24"
   sodipodi:docname="favicon.svg"
   inkscape:version="1.2.2 (b0a8486541, 2022-12-01)"
   xmlns:inkscape="http://www.inkscape.org/namespaces/inkscape"
   xmlns:sodipodi="http://sodipodi.sourceforge.net/DTD/sodipodi-0.dtd"
   xmlns="http://www.w3.org/2000/svg"
   xmlns:svg="http://www.w3.org/2000/svg">
  <defs
     id="defs28" />
  <sodipodi:namedview
     id="namedview26"
     pagecolor="#ffffff"
     bordercolor="#000000"
     borderopacity="0.25"
     inkscape:showpageshadow="2"
     inkscape:pageopacity="0.0"
     inkscape:pagecheckerboard="0"
     inkscape:deskcolor="#d1d1d1"
     showgrid="false"
     inkscape:zoom="5.2976889"
     inkscape:cx="152.99124"
     inkscape:cy="96.551536"
     inkscape:window-width="2556"
     inkscape:window-height="1561"
     inkscape:window-x="2560"
     inkscape:window-y="35"
     inkscape:window-maximized="1"
     inkscape:current-layer="svg24" />
  <g
     id="g295"
     transform="matrix(1.4131909,0,0,1.6429392,-23.798946,-37.875208)">
    <path
       fill="#ff7a00"
       transform="matrix(1.14,0,0,1.14,-7,-9)"
       d="M 50,88.6 47.5,86.3 C 28,68.7 15,56.9 15,42.5 15,31 24,22 35.5,22 42,22 48.2,25 52,29.7 55.8,25 62,22 68.5,22 80,22 89,31 89,42.5 89,56.9 70.678438,71.066973 51.178438,88.666973 Z"
       id="path2"
       sodipodi:nodetypes="ccsscsscc" />
    <g
       fill="none"
       stroke="#ffffff"
       stroke-linecap="round"
       stroke-linejoin="round"
       transform="matrix(1.18,0,0,1.18,-6.6711684,-12.68282)"
       id="g22">
      <g
         stroke-width="4.6"
         id="g10">
        <path
           d="M 50,38 C 45,34.6 38.5,34.4 31.9,36.3 29.8,36.9 28.5,38.8 28.5,41 v 22 c 7.8,-2.7 15.3,-2.3 21.5,1.7"
           id="path4" />
        <path
           d="m 50,38 c 5,-3.4 11.5,-3.6 18.1,-1.7 2.1,0.6 3.4,2.5 3.4,4.7 V 63 C 63.7,60.3 56.2,60.7 50,64.7"
           id="path6" />
        <path
           d="M 50,38 V 65"
           id="path8" />
      </g>
      <g
         stroke-width="2.4"
         opacity="0.95"
         id="g20">
        <path
           d="M 33,47 H 45"
           id="path12" />
        <path
           d="M 33,53 H 45"
           id="path14" />
        <path
           d="M 55,47 H 67"
           id="path16" />
        <path
           d="M 55,53 H 67"
           id="path18" />
      </g>
    </g>
  </g>
</svg>
